# xmcd
#
# Track frame offsets:
#	150
#	22572
#	44554
#	66452
#	86013
#	103711
#	120060
#	136709
#	152776
#	173851
#	191196
#
# Disc length: 2763 seconds
#
# Revision: 12
# Processed by: cddbd v1.5.2PL0 Copyright (c) Steve Scherf et al.
# Submitted via: EasyCDDAExtractor 16.0.9.1
#
DISCID=890ac90b
DTITLE=Александр Буйнов - Финансы поют романсы
DYEAR=1999
DGENRE=Blues
TTITLE0=Мои финансы поют романсы
TTITLE1=название дорожки 2
TTITLE2=название дорожки 3
TTITLE3=название дорожки 4
TTITLE4=название дорожки 5
TTITLE5=название дорожки 6
TTITLE6=название дорожки 7
TTITLE7=Не уходи
TTITLE8=название дорожки 9
TTITLE9=название дорожки 10
TTITLE10=название дорожки 11
EXTD=
EXTT0=
EXTT1=
EXTT2=
EXTT3=
EXTT4=
EXTT5=
EXTT6=
EXTT7=
EXTT8=
EXTT9=
EXTT10=
PLAYORDER=
